<svg width="24" height="24" viewBox="0 0 24 24" fill="none" xmlns="http://www.w3.org/2000/svg">
<path d="M11.655 3.54011L12.0195 3.53861L12.672 3.54161C13.5435 3.54761 15.132 3.56861 16.722 3.62711L16.9785 3.63761C18.7785 3.70961 20.5485 3.83261 21.3285 4.04561C21.8368 4.18321 22.3002 4.45156 22.6726 4.82395C23.045 5.19634 23.3134 5.65977 23.451 6.16811C24.243 9.36311 24.06 14.3881 23.466 17.7031C23.3284 18.2115 23.06 18.6749 22.6876 19.0473C22.3152 19.4197 21.8518 19.688 21.3435 19.8256C19.5885 20.3026 12.8685 20.3311 12.0735 20.3326L11.268 20.3296C10.0427 20.3201 8.81761 20.2951 7.59297 20.2546L7.12797 20.2396L6.68397 20.2201C5.00397 20.1466 3.38397 20.0251 2.64897 19.8241C2.14063 19.6865 1.6772 19.4182 1.30481 19.0458C0.932423 18.6734 0.664072 18.21 0.526471 17.7016C-0.268529 14.5216 -0.0525288 9.48161 0.511471 6.18161C0.649072 5.67327 0.917423 5.20984 1.28981 4.83745C1.6622 4.46506 2.12563 4.19671 2.63397 4.05911C4.25397 3.61511 10.194 3.54911 11.664 3.53711L11.655 3.54011ZM9.59997 8.34011V15.5401L15.81 11.9401L9.59997 8.34011Z" fill="black"/>
</svg>
